Coordinates
version=1
nRows=9
nColumns=24
inDegrees=yes

Units are S.I. units (second, meters, Newtons, ...)
Angles are in degrees.

endheader
time	pelvis_tilt	pelvis_list	pelvis_rotation	pelvis_tx	pelvis_ty	pelvis_tz	hip_flexion_r	hip_adduction_r	hip_rotation_r	knee_angle_r	ankle_angle_r	subtalar_angle_r	mtp_angle_r	hip_flexion_l	hip_adduction_l	hip_rotation_l	knee_angle_l	ankle_angle_l	subtalar_angle_l	mtp_angle_l	lumbar_extension	lumbar_bending	lumbar_rotation
      5.19500000	     12.87233134	     -1.39168738	     15.41005659	      1.01093741	      0.75603930	     -0.25740267	     -7.29267418	      6.31604029	     -5.51755231	    -14.23281585	     26.23958944	      9.59174005	      0.00000000	     14.78466715	      1.93600458	      8.62528776	    -70.03515701	     19.08563143	      0.48853535	      0.00000000	    -31.36053253	      9.15515192	     -6.24046805
      5.20000000	     12.90198630	     -1.39994592	     15.03356092	      1.01777346	      0.75618495	     -0.25747058	     -8.15844096	      6.39839899	     -5.30052656	    -13.68847890	     26.50205430	      9.93897919	      0.00000000	     15.54680663	      1.95735348	      8.11345560	    -68.99580886	     19.32049883	      0.54844168	      0.00000000	    -31.58430649	      9.00572797	     -5.58388156
      5.20500000	     12.94042787	     -1.41624094	     14.65144989	      1.02463272	      0.75625618	     -0.25755824	     -9.02978837	      6.47094892	     -5.12326196	    -13.15709763	     26.77391339	     10.34181583	      0.00000000	     16.25451103	      1.94220484	      7.60079463	    -67.84924570	     19.52575523	      0.55445157	      0.00000000	    -31.80930646	      8.86942371	     -4.92412088
      5.21000000	     12.98474611	     -1.44539471	     14.25639395	      1.03148965	      0.75625261	     -0.25765614	     -9.90153332	      6.53879080	     -4.96827334	    -12.63331882	     27.04707640	     10.79662442	      0.00000000	     16.91261639	      1.89676993	      7.10050286	    -66.60108082	     19.71432841	      0.51266020	      0.00000000	    -32.04139186	      8.74794428	     -4.27038656
      5.21500000	     13.06641060	     -1.43332189	     13.86612278	      1.03835105	      0.75622220	     -0.25776910	    -10.82043773	      6.55824948	     -4.85230002	    -12.12596869	     27.39030498	     11.33072083	      0.00000000	     17.46399267	      1.87527513	      6.63093207	    -65.23147349	     19.84875959	      0.44182835	      0.00000000	    -32.32061076	      8.59062619	     -3.62673769
      5.22000000	     13.13168162	     -1.47867294	     13.47211778	      1.04521695	      0.75607670	     -0.25788502	    -11.70288108	      6.61837798	     -4.76246299	    -11.62731999	     27.68424571	     11.87185028	      0.00000000	     18.00592687	      1.77780638	      6.17650176	    -63.77854928	     20.00622683	      0.33867538	      0.00000000	    -32.56919065	      8.48856154	     -2.98876206
      5.22500000	     13.18215096	     -1.57946944	     13.06930576	      1.05208266	      0.75582166	     -0.25799416	    -12.54463027	      6.71973682	     -4.68334015	    -11.15515878	     27.92234292	     12.37434616	      0.00000000	     18.53449793	      1.60397319	      5.73363923	    -62.24342042	     20.17796512	      0.21098431	      0.00000000	    -32.79426260	      8.43761262	     -2.32774941
      5.23000000	     13.25380601	     -1.65296278	     12.65586479	      1.05895325	      0.75553078	     -0.25811208	    -13.41251337	      6.78359090	     -4.59066349	    -10.69845490	     28.21348046	     12.90918967	      0.00000000	     18.96807868	      1.44747058	      5.31949605	    -60.58700669	     20.33135063	      0.09839132	      0.00000000	    -33.04761553	      8.35711220	     -1.68622941
      5.23500000	     13.36190111	     -1.68881574	     12.26562840	      1.06583184	      0.75521530	     -0.25827559	    -14.33258419	      6.80839492	     -4.54295588	    -10.24068144	     28.56783443	     13.50515806	      0.00000000	     19.29085556	      1.32782395	      4.96594989	    -58.81460183	     20.44807151	      0.00732795	      0.00000000	    -33.34114544	      8.26103386	     -1.11985498
